<?xml version="1.0" encoding="UTF-8" standalone="no"?>
<!-- Created with Inkscape (http://www.inkscape.org/) -->

<svg
   width="1080"
   height="1080"
   viewBox="0 0 285.74999 285.75"
   version="1.1"
   id="svg1"
   xml:space="preserve"
   inkscape:export-filename="paztg-logo.svg"
   inkscape:export-xdpi="96"
   inkscape:export-ydpi="96"
   sodipodi:docname="paztg-logo.svg"
   xmlns:inkscape="http://www.inkscape.org/namespaces/inkscape"
   xmlns:sodipodi="http://sodipodi.sourceforge.net/DTD/sodipodi-0.dtd"
   xmlns="http://www.w3.org/2000/svg"
   xmlns:svg="http://www.w3.org/2000/svg"><sodipodi:namedview
     id="namedview1"
     pagecolor="#ffffff"
     bordercolor="#000000"
     borderopacity="0.25"
     inkscape:showpageshadow="2"
     inkscape:pageopacity="0.0"
     inkscape:pagecheckerboard="0"
     inkscape:deskcolor="#d1d1d1"
     inkscape:document-units="mm" /><defs
     id="defs1" /><g
     inkscape:label="Layer 1"
     inkscape:groupmode="layer"
     id="layer1"><path
       style="fill:#ffffff"
       d="m 148.06539,235.78125 -20.04219,-22.58728 1e-5,-31.89143 1e-5,-31.89142 H 91.709152 c -38.739772,0 -37.819957,0.0275 -44.583871,-1.3349 -4.545979,-0.91569 -8.325338,-2.22044 -12.632283,-4.36107 -4.689228,-2.33062 -7.976939,-4.67446 -11.503254,-8.20078 -3.587205,-3.5872 -5.883494,-6.8337 -8.323546,-11.76783 -2.57845,-5.214 -3.904523,-9.23762 -4.7959631,-14.55209 C 9.3558059,106.1276 9.0273229,81.598441 9.4415099,77.17987 10.017886,71.031065 13.030526,63.276094 17.229585,57.132237 24.179237,46.963847 35.587117,39.732834 49.566638,36.635031 l 3.18261,-0.705253 24.341667,-0.08182 24.341665,-0.08182 33.60208,38.510088 33.60208,38.510084 0.13229,14.07907 0.1323,14.07907 0.71538,1.52663 c 1.32674,2.83128 4.54681,5.22378 8.77134,6.51706 1.70314,0.52139 2.42149,0.5557 11.77396,0.56225 l 9.96015,0.007 16.32221,18.71229 16.32222,18.71229 -32.26241,0.0672 -32.2624,0.0672 -0.0671,35.6261 -0.0671,35.6261 z M 127.97028,111.39049 c 0.24074,-0.24074 0.3175,-4.68186 0.3175,-18.369638 0,-16.194728 -0.0435,-18.095698 -0.42331,-18.475459 -0.3845,-0.384495 -3.58136,-0.416244 -34.858851,-0.346184 l -34.435537,0.07713 -1.430742,0.584291 c -3.18435,1.300436 -5.326861,3.375588 -7.040534,6.819186 l -1.186016,2.38328 v 8.931247 c 0,4.912186 0.104094,9.137997 0.23132,9.390677 1.183077,2.34974 1.577478,3.01274 2.476817,4.1636 1.72175,2.20328 3.720354,3.59374 6.681478,4.64842 1.245481,0.44361 3.391569,0.47346 35.338197,0.49162 26.122808,0.0148 34.085828,-0.0543 34.329678,-0.29817 z m 113.96828,57.07714 c -8.95626,-10.25564 -16.28411,-18.70671 -16.28411,-18.78016 0,-0.0734 2.53008,-0.16567 5.6224,-0.20494 l 5.62239,-0.0714 0.069,-11.17865 0.069,-11.17864 h -16.27046 -16.27045 l -3.84075,-4.39223 -3.84075,-4.39222 V 107.44806 96.626745 h 39.81979 39.81979 v 45.243745 45.24375 h -9.11589 -9.1159 z M 144.62169,57.386717 c -9.37811,-10.941891 -17.37657,-20.2813 -17.77436,-20.754243 l -0.72325,-0.859895 h 70.27039 70.2704 v 19.311209 19.31121 l -49.94011,0.06952 -49.9401,0.06952 -1.49353,0.603911 c -0.82144,0.33215 -1.9716,0.950232 -2.55593,1.373513 l -1.0624,0.769603 z"
       id="path1" /></g>
       <style>
        #path1 { fill: #000; }
        @media (prefers-color-scheme: dark) {
            path { fill: #FFF; }
        }
       </style>
       </svg>
